PathFileType	4	(X/Y/Z)	C:/Users/opensim2020/Desktop/walking_exp_matlab/subject01_walking06_straight_02.trc																																																																																																																															
DataRate	CameraRate	NumFrames	NumMarkers	Units	OrigDataRate	OrigDataStartFrame	OrigNumFrames																																																																																																																											
100	100	8	43	mm	100	1579	171																																																																																																																											
Frame#	Time	LFHD			RFHD			LBHD			RBHD			C7			T10			CLAV			STRN			RBAK			LSHO			LUPA			LELB			LFRM			LWRA			LWRB			LFIN			RSHO			RUPA			RELB			RFRM			RWRA			RWRB			RFIN			LASI			RASI			LPSI			RPSI			LTHI			LKNE			LTIB			LANK			LHEE			LTOE			RTHI			RKNE			RTIB			RANK			RHEE			RTOE			*39			*40			*41			*42		
		X1	Y1	Z1	X2	Y2	Z2	X3	Y3	Z3	X4	Y4	Z4	X5	Y5	Z5	X6	Y6	Z6	X7	Y7	Z7	X8	Y8	Z8	X9	Y9	Z9	X10	Y10	Z10	X11	Y11	Z11	X12	Y12	Z12	X13	Y13	Z13	X14	Y14	Z14	X15	Y15	Z15	X16	Y16	Z16	X17	Y17	Z17	X18	Y18	Z18	X19	Y19	Z19	X20	Y20	Z20	X21	Y21	Z21	X22	Y22	Z22	X23	Y23	Z23	X24	Y24	Z24	X25	Y25	Z25	X26	Y26	Z26	X27	Y27	Z27	X28	Y28	Z28	X29	Y29	Z29	X30	Y30	Z30	X31	Y31	Z31	X32	Y32	Z32	X33	Y33	Z33	X34	Y34	Z34	X35	Y35	Z35	X36	Y36	Z36	X37	Y37	Z37	X38	Y38	Z38	X39	Y39	Z39	X40	Y40	Z40	X41	Y41	Z41	X42	Y42	Z42	X43	Y43	Z43
																																																																																																																																		
65	0.64	-261.70538	1667.2052	1048.56567	-230.96121	1670.61682	1159.67029	-378.0502	1629.5332	1074.75024	-349.40884	1633.29993	1192.80396	-420.51147	1434.32935	1108.49756	-463.33157	1142.08679	1118.02368	-277.66757	1363.26331	1110.19104	-237.39728	1208.64783	1105.66138	-479.81641	1242.11536	1185.89966	-335.04242	1394.14111	949.02393	-330.60458	1211.36877	859.96033	-305.77802	1060.78735	852.99811	-226.4525	976.43225	830.88702	-109.79932	902.37982	856.24384	-155.49573	876.91168	826.19952	-82.05453	833.99005	822.25989	-340.49335	1394.34253	1261.60742	-418.75821	1199.73914	1358.57581	-432.59039	1076.33032	1359.27466	-421.74182	957.09216	1391.37817	-353.81445	831.03607	1379.76917	-401.11206	837.95917	1414.41125	-376.14127	754.70447	1414.00073	-298.02676	929.83063	1010.41791	-289.74103	938.90051	1226.56433	-481.6062	944.52539	1073.02954	-472.96857	945.48816	1218.65283	-367.28775	598.40259	973.1958	-396.04675	465.40689	994.56104	-472.87317	290.86731	997.10431	-526.92377	81.49554	1062.04968	-572.54254	58.24584	1117.19043	-383.59991	35.79995	1050.63831	-241.1508	622.15002	1296.42883	-192.89676	469.94742	1271.87244	-245.65788	301.66605	1279.71753	-265.93039	94.81628	1234.67932	-309.26059	54.90377	1179.49365	-131.75314	53.21515	1247.70178	-243.93045	1705.54236	1139.09192	-1973.17981	1023.35492	3101.99487	-2012.56848	1022.099	3140.59717	NaN	NaN	NaN
66	0.65	-251.79929	1666.49866	1049.49353	-221.07788	1669.73608	1160.56689	-368.25958	1628.92261	1075.75452	-339.59836	1632.42578	1193.66809	-410.77539	1433.60327	1109.1427	-453.64209	1141.38293	1118.86108	-267.99377	1362.44495	1110.68042	-227.68559	1207.86243	1105.84302	-470.11703	1241.30042	1186.24158	-325.34506	1393.69824	949.58624	-320.53305	1211.21741	860.30048	-294.20676	1061.05005	852.612	-213.29802	977.88855	830.45166	-95.24049	906.16718	855.49951	-140.50053	879.67657	825.77045	-66.09817	838.36285	821.474	-330.7522	1393.39697	1262.22485	-410.17276	1198.97266	1358.69934	-424.47202	1075.69055	1359.2655	-414.39081	956.35199	1391.35034	-347.67538	829.7572	1379.97302	-394.51999	837.21814	1414.44702	-369.5202	753.55023	1414.06128	-289.16412	929.07196	1010.42487	-279.51831	938.04016	1226.78589	-472.3656	944.13879	1074.09705	-463.04251	944.86084	1219.53369	-361.77753	598.30475	973.27826	-392.31378	465.54922	994.44812	-470.27237	291.71317	997.44434	-526.58624	82.68116	1062.06104	-572.15955	59.92424	1117.30725	-383.59576	35.86813	1050.60388	-233.41153	620.0835	1295.72424	-183.88251	469.12976	1270.74561	-227.83142	298.87561	1279.89038	-234.66713	90.18015	1236.07007	-275.90518	48.23792	1181.45654	-97.6461	55.47225	1247.04651	-234.22086	1704.61719	1139.98755	-1973.11694	1023.46796	3101.91675	-2012.61731	1022.04877	3140.5918	NaN	NaN	NaN
67	0.66	-242.01913	1665.7113	1050.49023	-211.27667	1668.84766	1161.61072	-358.33804	1628.11011	1076.50781	-329.815	1631.51868	1194.68579	-401.01508	1432.79419	1109.83813	-444.19534	1140.65503	1119.96741	-258.23462	1361.59448	1111.34985	-217.91718	1206.97229	1106.08069	-460.29568	1240.35645	1186.78992	-315.54047	1393.12561	950.31024	-310.19818	1210.99316	860.55768	-282.28928	1060.84534	852.5304	-200.34259	979.1748	830.11786	-80.95928	909.76923	854.86499	-125.84336	882.24463	825.39948	-50.77125	842.64685	820.65948	-320.97885	1392.37695	1262.92578	-401.5575	1198.19836	1358.91333	-416.25327	1074.96484	1359.34363	-406.58453	955.45923	1391.26807	-340.6351	828.74835	1380.02661	-387.44742	836.25562	1414.32178	-362.78348	752.60663	1414.07019	-280.14395	928.36792	1010.56219	-269.06406	937.08087	1226.97327	-462.98206	943.67053	1075.41187	-453.00824	944.08838	1220.56348	-356.05841	598.25671	973.31787	-387.94101	465.61542	994.43848	-467.88702	292.60526	997.5495	-526.05859	84.04917	1062.04236	-571.75494	61.78273	1117.39612	-383.56015	35.8134	1050.55957	-226.9454	617.01422	1295.10522	-174.99995	468.25967	1269.57056	-210.2589	296.32559	1279.95825	-204.11716	87.01991	1237.28491	-243.62738	43.08353	1183.11389	-65.07504	58.62844	1246.55725	-224.366	1703.79297	1141.12573	-1973.37646	1023.00916	3102.01538	-2012.62805	1022.04407	3140.6311	NaN	NaN	NaN
68	0.67	-232.20407	1664.91833	1051.57678	-201.44904	1667.86426	1162.70923	-348.51602	1627.2168	1077.63818	-320.11618	1630.35596	1195.45239	-391.30176	1431.96606	1110.7655	-434.63675	1139.90234	1121.2323	-248.52779	1360.68176	1112.09375	-208.18033	1206.11353	1106.43005	-450.45502	1239.34949	1187.48254	-305.7417	1392.51318	951.16534	-299.56671	1210.65881	860.82928	-271.48907	1060.89392	852.19312	-187.76204	980.35175	829.87439	-67.20329	913.10669	854.38635	-111.52187	884.71655	825.07434	-35.76176	846.71442	820.02625	-311.16513	1391.40527	1263.81384	-392.86765	1197.42053	1359.30347	-407.98846	1074.14954	1359.51147	-398.97937	954.70789	1391.46106	-333.22443	827.65765	1380.22363	-380.25864	835.3623	1414.40112	-355.81119	751.59955	1414.0813	-271.01093	927.85962	1010.58478	-258.44003	936.18652	1227.1355	-453.41058	943.19263	1076.80737	-442.76379	943.29651	1221.80481	-350.11951	598.2038	973.32629	-383.42896	465.70328	994.32983	-465.10876	293.57843	997.659	-525.26898	85.4159	1062.25171	-571.21014	63.77308	1117.46814	-383.85144	35.6741	1050.48706	-220.68852	614.50793	1294.94849	-166.16353	467.10919	1268.73572	-192.83742	294.29153	1280.19019	-175.05397	85.22346	1238.31067	-212.70863	39.23495	1184.58301	-33.97914	63.79973	1246.44983	-214.58162	1702.76953	1142.31189	-1973.17517	1023.31396	3101.77686	-2012.52893	1022.02533	3140.61841	NaN	NaN	NaN
69	0.68	-222.33488	1663.96106	1052.90894	-191.63977	1666.87097	1163.87219	-338.75397	1626.32617	1078.9541	-310.29474	1629.32043	1196.59082	-381.48499	1431.14197	1111.7699	-424.88263	1139.0531	1122.53857	-238.81302	1359.6958	1113.00598	-198.38324	1205.27722	1106.91919	-440.56552	1238.29309	1188.47437	-295.94592	1391.8031	952.15515	-289.25116	1210.36548	861.32562	-260.22449	1060.45117	852.55383	-175.37801	981.4115	829.6817	-53.84507	916.22168	853.99139	-97.66762	887.02643	824.71704	-21.01041	850.48926	819.54547	-301.30225	1390.36499	1264.83337	-384.0387	1196.5282	1359.63855	-399.59402	1073.29944	1359.7782	-390.99274	953.79486	1391.65625	-325.69714	826.59436	1380.33704	-372.6962	834.30219	1414.23572	-348.55359	750.59229	1414.15295	-261.66138	927.37683	1010.62158	-247.68616	935.15112	1227.21106	-443.70444	942.59271	1078.33191	-432.32187	942.46771	1223.08508	-343.99744	598.19037	973.22473	-378.43036	465.8605	994.23767	-462.08362	294.63943	997.73083	-524.48041	86.96666	1062.29773	-570.62726	65.98665	1117.61218	-383.74219	35.50499	1050.43787	-214.68317	611.82538	1295.30701	-157.08583	466.05167	1267.94775	-175.57646	292.8045	1280.38477	-147.74214	84.3826	1238.89038	-183.43568	36.60186	1185.62671	-5.35255	69.35417	1245.96362	-204.7997	1701.8208	1143.44812	-1973.04517	1023.56378	3101.94775	-2012.5553	1022.10455	3140.59961	NaN	NaN	NaN
70	0.69	-212.6248	1663.14783	1054.07178	-181.78929	1665.92126	1165.21863	-328.91061	1625.38989	1080.12122	-300.45923	1628.28003	1197.7926	-371.75458	1430.26514	1112.96362	-414.93274	1138.07117	1123.9054	-229.0934	1358.6709	1113.99304	-188.55302	1204.43616	1107.4989	-430.61304	1237.14526	1189.60693	-286.23419	1391.06165	953.27905	-279.16754	1210.00781	862.1416	-249.39209	1060.4353	852.19897	-163.41751	982.31525	829.59967	-40.89975	918.97766	853.74475	-84.23668	889.21021	824.46436	-7.05702	854.04639	818.96503	-291.4505	1389.30676	1265.97852	-375.17065	1195.64624	1360.25452	-390.93039	1072.41895	1360.15906	-382.78345	952.91266	1391.97351	-317.83676	825.4621	1380.53345	-364.97168	833.24237	1414.26709	-341.0079	749.50439	1414.18518	-252.2496	926.92554	1010.57953	-236.74371	933.87585	1227.29993	-433.83313	941.96912	1079.84009	-421.22379	941.40741	1224.32959	-337.42255	598.18396	973.11768	-373.04471	465.98212	994.08813	-458.78763	295.65479	997.75665	-523.59308	88.81644	1062.27527	-569.97076	68.44321	1117.6145	-383.48483	35.67871	1050.43726	-208.54311	609.10883	1296.27197	-147.7618	465.03845	1267.35437	-158.91673	291.67682	1280.43445	-122.3758	84.32429	1239.12549	-156.56506	34.95686	1186.08813	20.97241	74.45313	1245.10229	-194.95982	1700.87061	1144.74768	-1973.17285	1023.34412	3101.8291	-2012.48083	1021.92517	3140.73364	NaN	NaN	NaN
71	0.7	-202.75078	1662.23584	1055.38049	-171.90765	1664.92798	1166.53442	-319.13156	1624.57532	1081.67358	-290.54947	1627.35266	1199.24084	-361.96024	1429.31104	1114.26904	-404.92557	1137.00806	1125.37598	-219.27539	1357.80566	1115.11157	-178.66231	1203.57629	1108.26135	-420.57092	1235.95935	1190.86792	-276.55478	1390.32141	954.53931	-268.92654	1209.68616	862.91284	-238.13637	1059.82935	853.05786	-151.77304	983.12695	829.61572	-28.3684	921.48779	853.54376	-71.25101	891.11542	824.14398	6.41039	857.19916	818.72388	-281.52322	1388.22998	1267.26294	-366.09439	1194.65576	1360.89648	-382.121	1071.49072	1360.67322	-374.41373	951.83496	1392.1333	-309.77164	824.33759	1380.79272	-356.96368	832.17609	1414.42468	-332.98865	748.54156	1414.30164	-242.68442	926.49585	1010.53186	-225.73636	932.66956	1227.19043	-423.83011	941.30328	1081.26624	-409.7984	940.29681	1225.68823	-330.5145	598.14178	972.97223	-367.18732	466.13168	993.90912	-455.22641	296.82608	997.55005	-522.44751	90.7149	1062.19714	-569.22729	71.21316	1117.39771	-383.42053	35.66269	1050.38696	-201.71526	606.8822	1297.93445	-138.33104	464.13867	1266.98914	-142.93015	290.71683	1280.12964	-99.08153	84.57151	1239.04529	-131.95366	34.08064	1186.0835	44.80087	79.15022	1243.77979	-185.12566	1699.84338	1146.0531	-1972.92395	1023.87329	3102.06372	-2012.57385	1022.07806	3140.64355	NaN	NaN	NaN
72	0.71	-192.98317	1661.31641	1056.83948	-162.00258	1663.97192	1167.94153	-309.27701	1623.66785	1082.9447	-280.65314	1626.43335	1200.73267	-352.23526	1428.34753	1115.79175	-394.81537	1135.95386	1126.86218	-209.48239	1356.9137	1116.39246	-168.5981	1202.78235	1109.20227	-410.52225	1234.72534	1192.28735	-266.91473	1389.57532	955.93842	-258.44897	1209.35913	863.64941	-228.03647	1059.63989	853.15729	-140.32684	983.84106	829.71954	-16.32986	923.68329	853.47791	-58.78959	892.85693	823.901	19.39332	860.10095	818.07471	-271.5976	1387.13757	1268.65039	-356.88998	1193.65491	1361.77026	-373.0921	1070.47266	1361.28137	-365.7677	950.71063	1392.56592	-301.3642	823.1557	1381.18127	-348.65842	831.00684	1414.67004	-324.86774	747.34583	1414.58899	-232.97253	926.0274	1010.52863	-214.60582	931.30878	1227.16235	-413.58789	940.60779	1082.64917	-398.44296	939.16895	1226.83545	-323.1424	598.21106	972.79956	-360.75583	466.33069	993.76379	-451.21982	298.00589	997.35193	-521.59961	92.97905	1061.65649	-568.22687	74.06824	1117.14124	-383.39368	35.55405	1050.46155	-194.18794	604.86334	1299.42773	-128.83885	463.20981	1266.74402	-128.06197	289.94571	1280.16064	-78.4331	84.83446	1238.73962	-110.35891	34.0116	1186.06689	66.25493	82.7383	1241.9021	-175.22458	1698.93872	1147.56311	-1973.07178	1023.82074	3102.02295	-2012.54175	1022.0625	3140.69434	NaN	NaN	NaN
